/* XPM */
static char *_646b9fc0db541bec9dda019acd26734o6rJ4d5CiCFVwev6[] = {
/* columns rows colors chars-per-pixel */
"60 60 8 1 ",
"  c None",
". c #382121",
"X c #A04345",
"o c #BC4D4F",
"O c #4B9A27",
"+ c #D8B78F",
"@ c #FFD7A8",
"# c white",
/* pixels */
"         ............................................       ",
"         ............................................       ",
"         ............................................       ",
"         ............................................       ",
"       .......XXXXXXXXXXXXXXXoooooooooooooooooooooooo....   ",
"       .......XXXXXXXXXXXXXXXoooooooooooooooooooooooo....   ",
"   ....OO.....XXXXXXXXXXXXXXXXXoooooooooXXXXXXXXXXXoo....   ",
"   ....OO.....XXXXXXXXXXXXXXXXXoooooooooXXXXXXXXXXXoo....   ",
"   ....OO.....XXXXXXXXXXXXXXXXXoooooooooXXXXXXXXXXXoo....   ",
"   ....OO.....XXXXXXXXXXXXXXXXXoooooooooXXXXXXXXXXXoo....   ",
"   ....OO.....XXXXXXXXXXXXXXXXXoooooooooXXXXXXXXXXXoo....   ",
"   ....OO.....XXXX##.....####XXoooo.....ooooooooooo......   ",
"   ....OO.....XXXX##.....####XXoooo.....ooooooooooo......   ",
"   ....OO.....XXXX##.....####XXoooo.....ooooooooooo......   ",
"   ....OO.....XXXX##.....####XXoooo.....ooooooooooo......   ",
"   ...........XXXX##.....####XXoooooooooooooooooooooo....   ",
"   ...........XXXX##.....####XXoooooooooooooooooooooo....   ",
"       ..OOOOO....##.....####XXoooooooooooooooooooooo....   ",
"       ..OOOOO....##.....####XXoooooooooooooooooooooo....   ",
"       ..OOOOO....##.....####XXoooooooooooooooooooooo....   ",
"       ..OOOOO....##.....####XXoooooooooooooooooooooo....   ",
"       ..OOOOO....XXXXXXXXXXXXXoooooooooooooooooooooo....   ",
"       ..OOOOO....XXXXXXXXXXXXXoooooooooooooooooooooo....   ",
"       ..OOOOO....XXXXXXXXXXXXXoooooooooooooooooooooo....   ",
"       ..OOOOO....XXXXXXXXXXXXXoooooooooooooooooooooo....   ",
"       ..OOOOO....XXXXXXXXXXXXXoooooooooooooooooooooo....   ",
"       ...........XXXXXXXXXXXXXXXXXooooo.................   ",
"       ...........XXXXXXXXXXXXXXXXXooooo.................   ",
"       .......XXXXXXooooooooooooooo.....                    ",
"       .......XXXXXXooooooooooooooo.....                    ",
"       .......XXXXXXooooooooooooooo.....                    ",
"       .......XXXXXXooooooooooooooo.....                    ",
"         .....XXXX++@@@@@@@@@@@@@@@.....                    ",
"         .....XXXX++@@@@@@@@@@@@@@@.....                    ",
"   ...........XXXX++@@@@@@@@@@@@@@@.....                    ",
"   ...........XXXX++@@@@@@@@@@@@@@@.....                    ",
"   ...........XXXX++@@@@@@@@@@@@@@@.....                    ",
"   ...........XXXX++@@@@@@@@@@@@@@@.....                    ",
"   ...........XXXX++@@@@@@@@@@@@@@@.....                    ",
"   ....oooooooXXXX++@@@@@@@@@@@@@@@.....                    ",
"   ....oooooooXXXX++@@@@@@@@@@@@@@@.....                    ",
"   ....oooooooXXXX++@@@@@@@@@@@@@@@.....                    ",
"   ....oooooooXXXX++@@@@@@@@@@@@@@@.....                    ",
"   ......XXXXXXXXXXXooooo++++++oooo.....                    ",
"   ......XXXXXXXXXXXooooo++++++oooo.....                    ",
"       .......XXXXooooooooooooooooo.....                    ",
"       .......XXXXooooooooooooooooo.....                    ",
"       .......XXXXooooooooooooooooo.....                    ",
"       .......XXXXooooooooooooooooo.....                    ",
"         .....XXXXoo.........XXoooo.....                    ",
"         .....XXXXoo.........XXoooo.....                    ",
"         .....XXXXoo.........XXoooo.....                    ",
"         .....XXXXoo.........XXoooo.....                    ",
"         .....XXXXoo.........XXoooo.....                    ",
"         .....XXXX..     ....XX....                         ",
"         .....XXXX..     ....XX....                         ",
"         .........       ......                             ",
"         .........       ......                             ",
"         .........       ......                             ",
"         .........       ......                             "
};
