/* XPM */
static char *b172ff7ba8174d25a9d35958d2afd30c76YKESKL6uQeVN0k[] = {
/* columns rows colors chars-per-pixel */
"60 60 6 1 ",
"  c None",
". c black",
"X c #636057",
"o c #F2E200",
"O c #FFEE00",
"+ c white",
/* pixels */
"                         .....                              ",
"                         .....                              ",
"                         .....                              ",
"                         ........                           ",
"                         ........                           ",
"                            .......                         ",
"                            .......                         ",
"                            .......                         ",
"                         ...............                    ",
"                         ...............                    ",
"                       ..XXXXXXXXXXXXXXX...                 ",
"                       ..XXXXXXXXXXXXXXX...                 ",
"                       ..XXXXXXXXXXXXXXX...                 ",
"                       ..XXXXXXXXXXXXXXX...                 ",
"                       ..XXXXXXXXXXXXXXX...                 ",
"        .......     ............................            ",
"        .......     ............................            ",
"        .......     ............................            ",
"     ...ooooooo...................................          ",
"     ...ooooooo...................................          ",
"   ..ooooo...ooooo...................................       ",
"   ..ooooo...ooooo...................................       ",
"   ..ooooo...ooooo...................................       ",
"   ..ooo.......ooo...................................       ",
"   ..ooo.......ooo...................................       ",
"   ..ooooo...oo....................+++++.....+++++.....     ",
"   ..ooooo...oo....................+++++.....+++++.....     ",
"   ..ooooo...oo....................+++++.....+++++.....     ",
"     ...ooooooo....................+++++.....+++++.....     ",
"     ...ooooooo....................+++++.....+++++.....     ",
"     ...ooooooo....................+++++.....+++++.....     ",
"     ...ooooooo....................+++++.....+++++.....     ",
"     ...ooooooo....................+++++.....+++++.....     ",
"     ...ooooooo....................+++++.....+++++.....     ",
"     ...ooooooo....................+++++.....+++++.....     ",
"   ..ooooo...oo........................................     ",
"   ..ooooo...oo........................................     ",
"   ..ooo.......ooo.....................................     ",
"   ..ooo.......ooo.....................................     ",
"   ..ooo.......ooo.....................................     ",
"   ..ooooo...ooooo...................................       ",
"   ..ooooo...ooooo...................................       ",
"     ...ooooooo......................................       ",
"     ...ooooooo......................................       ",
"     ...ooooooo......................................       ",
"        .......   ................................          ",
"        .......   ................................          ",
"                    ............................            ",
"                    ............................            ",
"                    ............................            ",
"                    ...OO..................OOOOO..          ",
"                    ...OO..................OOOOO..          ",
"                    ...OOOOOOOOOOOOOOO..OOOOOOOO..          ",
"                    ...OOOOOOOOOOOOOOO..OOOOOOOO..          ",
"                    ...OOOOOOOOOOOOOOO..OOOOOOOO..          ",
"                    ...OOOOOOOOOOOOOOO..OOOOOOOO..          ",
"                    ...OOOOOOOOOOOOOOO..OOOOOOOO..          ",
"                       .........................            ",
"                       .........................            ",
"                       .........................            "
};
