/* XPM */
static char *_5e2779e59d0408698c98601b8c6b85cSqs840JepuhtSlEh[] = {
/* columns rows colors chars-per-pixel */
"60 60 8 1 ",
"  c None",
". c #21001E",
"X c #531E1E",
"o c #E5621B",
"O c #FF4D3D",
"+ c #C92252",
"@ c #F4B200",
"# c #FFFB9B",
/* pixels */
"                            ++++                            ",
"                            ++++                            ",
"                            ++++                            ",
"                            ++++                            ",
"                        XXXXooooXXXX                        ",
"                        XXXXooooXXXX                        ",
"                        XXXXooooXXXX                        ",
"                        XXXXooooXXXX                        ",
"                        XXXX++++XXXX                        ",
"                        XXXX++++XXXX                        ",
"                        XXXX++++XXXX                        ",
"                        XXXX++++XXXX                        ",
"                        XXXX@@@@XXXX                        ",
"                        XXXX@@@@XXXX                        ",
"                        XXXX@@@@XXXX                        ",
"                        XXXX@@@@XXXX                        ",
"                    XXXX@@@@++++@@@@XXXX                    ",
"                    XXXX@@@@++++@@@@XXXX                    ",
"                    XXXX@@@@++++@@@@XXXX                    ",
"                    XXXX@@@@++++@@@@XXXX                    ",
"                XXXX@@@@XXXX++++XXXX@@@@XXXX                ",
"                XXXX@@@@XXXX++++XXXX@@@@XXXX                ",
"                XXXX@@@@XXXX++++XXXX@@@@XXXX                ",
"                XXXX@@@@XXXX++++XXXX@@@@XXXX                ",
"            XXXX@@@@XXXX@@@@@@@@@@@@XXXX@@@@XXXX            ",
"            XXXX@@@@XXXX@@@@@@@@@@@@XXXX@@@@XXXX            ",
"            XXXX@@@@XXXX@@@@@@@@@@@@XXXX@@@@XXXX            ",
"            XXXX@@@@XXXX@@@@@@@@@@@@XXXX@@@@XXXX            ",
"            XXXX@@@@XXXX####@@@@####XXXX@@@@XXXX            ",
"            XXXX@@@@XXXX####@@@@####XXXX@@@@XXXX            ",
"            XXXX@@@@XXXX####@@@@####XXXX@@@@XXXX            ",
"            XXXX@@@@XXXX####@@@@####XXXX@@@@XXXX            ",
"            XXXXooooXXXX....@@@@....XXXXooooXXXX            ",
"            XXXXooooXXXX....@@@@....XXXXooooXXXX            ",
"            XXXXooooXXXX....@@@@....XXXXooooXXXX            ",
"            XXXXooooXXXX....@@@@....XXXXooooXXXX            ",
"                XXXXXXXXoooo@@@@ooooXXXXXXXX                ",
"                XXXXXXXXoooo@@@@ooooXXXXXXXX                ",
"                XXXXXXXXoooo@@@@ooooXXXXXXXX                ",
"                XXXXXXXXoooo@@@@ooooXXXXXXXX                ",
"                XXXXXXXXoooo@@@@ooooXXXXXXXX                ",
"                XXXXXXXXoooo@@@@ooooXXXXXXXX                ",
"                XXXXXXXXoooo@@@@ooooXXXXXXXX                ",
"                XXXXXXXXoooo@@@@ooooXXXXXXXX                ",
"            XXXXXXXX@@@@XXXXXXXXXXXX@@@@XXXXXXXX            ",
"            XXXXXXXX@@@@XXXXXXXXXXXX@@@@XXXXXXXX            ",
"            XXXXXXXX@@@@XXXXXXXXXXXX@@@@XXXXXXXX            ",
"            XXXXXXXX@@@@XXXXXXXXXXXX@@@@XXXXXXXX            ",
"        XXXXOOOOXXXX@@@@            @@@@XXXXOOOOXXXX        ",
"        XXXXOOOOXXXX@@@@            @@@@XXXXOOOOXXXX        ",
"        XXXXOOOOXXXX@@@@            @@@@XXXXOOOOXXXX        ",
"        XXXXOOOOXXXX@@@@            @@@@XXXXOOOOXXXX        ",
"        XXXXXXXXXXXXooooXXXX    XXXXooooXXXXXXXXXXXX        ",
"        XXXXXXXXXXXXooooXXXX    XXXXooooXXXXXXXXXXXX        ",
"        XXXXXXXXXXXXooooXXXX    XXXXooooXXXXXXXXXXXX        ",
"        XXXXXXXXXXXXooooXXXX    XXXXooooXXXXXXXXXXXX        ",
"                    XXXXXXXX    XXXXXXXX                    ",
"                    XXXXXXXX    XXXXXXXX                    ",
"                    XXXXXXXX    XXXXXXXX                    ",
"                    XXXXXXXX    XXXXXXXX                    "
};
