/* XPM */
static char *_c74b1f6604a4e718f2161018773b428t22qyeVB8NBFEVVG[] = {
/* columns rows colors chars-per-pixel */
"60 60 9 1 ",
"  c None",
". c #21001E",
"X c #531E1E",
"o c #B52F1F",
"O c #E5621B",
"+ c #FF4D3D",
"@ c #C92252",
"# c #F4B200",
"$ c #FFFB9B",
/* pixels */
"                                                            ",
"                                                            ",
"           XXXXXXXXXXXX@@@@@@@                              ",
"           XXXXXXXXXXXX@@@@@@@                              ",
"           XXXXXXXXXXXX@@@@@@@                              ",
"           XXXXXXXXXXXX@@@@@@@                              ",
"    XXXXXXX####$$$$####XXX                                  ",
"    XXXXXXX####$$$$####XXX                                  ",
"    XXXXXXX####$$$$####XXX                                  ",
"XXXX###########....####OOOXXXX@@@@                          ",
"XXXX###########....####OOOXXXX@@@@                          ",
"XXXX###########....####OOOXXXX@@@@                          ",
"XXXX###########....####OOOXXXX@@@@                          ",
"XXXXOOOOOOOOOOOOOOOOOOOoooXXXX                              ",
"XXXXOOOOOOOOOOOOOOOOOOOoooXXXX                              ",
"XXXXOOOOOOOOOOOOOOOOOOOoooXXXX                              ",
"XXXXOOOOOOOOOOOOOOOOOOOoooXXXX                              ",
"    XXXXXXXXXXXXXXXooooXXX                   @@@@           ",
"    XXXXXXXXXXXXXXXooooXXX                   @@@@           ",
"    XXXXXXXXXXXXXXXooooXXX                   @@@@           ",
"    XXXXXXXXXXXXXXXooooXXX                   @@@@           ",
"               XXXX####XXX@@@@    @@@@   XXXXXXXXXXX@@@@    ",
"               XXXX####XXX@@@@    @@@@   XXXXXXXXXXX@@@@    ",
"               XXXX####XXX@@@@    @@@    XXXXXXXXXXX@@@@    ",
"           XXXX####OOOOXXXXXXXXXXXXXXXXXX###########XXXX    ",
"           XXXX####OOOOXXXXXXXXXXXXXXXXXX###########XXXX    ",
"           XXXX####OOOOXXXXXXXXXXXXXXXXXX###########XXXX    ",
"           XXXX####OOOOXXXXXXXXXXXXXXXXXX###########XXXX    ",
"           XXXXOOOOoooo##################OOOOXXXXXXX####XXXX",
"           XXXXOOOOoooo##################OOOOXXXXXXX####XXXX",
"           XXXXOOOOoooo##################OOOOXXXXXXX####XXXX",
"           XXXXOOOOoooo##################OOOOXXXXXXX####XXXX",
"           XXXXXXXX##################OOOOXXXX       ooooXXXX",
"           XXXXXXXX##################OOOOXXXX       ooooXXXX",
"           XXXXXXXX##################OOOOXXXX       ooooXXXX",
"           XXXXXXXX##################OOOOXXXX       ooooXXXX",
"               XXXX####oooOOOOoooo###ooooXXXX           XXXX",
"               XXXX###ooooOOOOoooo###ooooXXXX           XXXX",
"               XXXX###ooooOOOOoooo###ooooXXXX           XXXX",
"           XXXX####XXXXXXXXXXXXXXX###ooooXXXX               ",
"           XXXX####XXXXXXXXXXXXXXX###ooooXXXX               ",
"           XXXX####XXXXXXXXXXXXXXX###ooooXXXX               ",
"           XXXX####XXXXXXXXXXXXXXX###ooooXXXX               ",
"        XXX####XXXX       XXXXXXXXXXXOOOOXXXX               ",
"        XXX####XXXX       XXXXXXXXXXXOOOOXXXX               ",
"        XXX####XXXX       XXXXXXXXXXXOOOOXXXX               ",
"        XXX####XXXX       XXXXXXXXXXXOOOOXXXX               ",
"           XXXXXXXX           XXXXXXXOOOOXXXX               ",
"           XXXXXXXX           XXXXXXXOOOOXXXX               ",
"           XXXXXXXX           XXXXXXXOOOOXXXX               ",
"           XXXXXXXX           XXXXXXXOOOOXXXX               ",
"                          XXXXXXXXXXXOOOOXXXX               ",
"                          XXXXXXXXXXXOOOOXXXX               ",
"                          XXXXXXXXXXXOOOOXXXX               ",
"                      XXXX++++XXXX+++XXXX                   ",
"                      XXXX++++XXXX+++XXXX                   ",
"                      XXXX++++XXXX+++XXXX                   ",
"                      XXXX++++XXXX+++XXXX                   ",
"                                                            ",
"                                                            "
};
