/* XPM */
static char *_a07534e9415461cf4f9f5cc10281432OZ7kHQRbVlKco7cq[] = {
/* columns rows colors chars-per-pixel */
"60 60 9 1 ",
"  c None",
". c #21001E",
"X c #531E1E",
"o c #B52F1F",
"O c #E5621B",
"+ c #FF4D3D",
"@ c #C92252",
"# c #F4B200",
"$ c #FFFB9B",
/* pixels */
"                                                            ",
"                                                            ",
"                              @@@@@@@@XXXXXXXXXXX           ",
"                              @@@@@@@@XXXXXXXXXXX           ",
"                              @@@@@@@@XXXXXXXXXXX           ",
"                              @@@@@@@@XXXXXXXXXXX           ",
"                                  XXXX###$$$$####XXXXXXX    ",
"                                  XXXX###$$$$####XXXXXXX    ",
"                                  XXXX###$$$$####XXXXXXX    ",
"                          @@@@XXXXOOOO###....###########XXXX",
"                          @@@@XXXXOOOO###....###########XXXX",
"                          @@@@XXXXOOOO###....###########XXXX",
"                          @@@@XXXXOOOO###....###########XXXX",
"                              XXXXooooOOOOOOOOOOOOOOOOOOXXXX",
"                              XXXXooooOOOOOOOOOOOOOOOOOOXXXX",
"                              XXXXooooOOOOOOOOOOOOOOOOOOXXXX",
"                              XXXXooooOOOOOOOOOOOOOOOOOOXXXX",
"           @@@@                   XXXXoooXXXXXXXXXXXXXXX    ",
"           @@@@                   XXXXoooXXXXXXXXXXXXXXX    ",
"           @@@@                   XXXXoooXXXXXXXXXXXXXXX    ",
"           @@@@                   XXXXoooXXXXXXXXXXXXXXX    ",
"    @@@@XXXXXXXXXXX    @@@    @@@@XXXX###XXXX               ",
"    @@@@XXXXXXXXXXX    @@@    @@@@XXXX###XXXX               ",
"    @@@@XXXXXXXXXXX    @@@    @@@@XXX####XXXX               ",
"    XXXX###########XXXXXXXXXXXXXXXXXXOOOO####XXXX           ",
"    XXXX###########XXXXXXXXXXXXXXXXXXOOOO####XXXX           ",
"    XXXX###########XXXXXXXXXXXXXXXXXXOOOO####XXXX           ",
"    XXXX###########XXXXXXXXXXXXXXXXXXOOOO####XXXX           ",
"XXXX####XXXXXXXOOOO##################ooooOOOOXXXX           ",
"XXXX####XXXXXXXOOOO##################ooooOOOOXXXX           ",
"XXXX####XXXXXXXOOOO##################ooooOOOOXXXX           ",
"XXXX####XXXXXXXOOOO##################ooooOOOOXXXX           ",
"XXXXoooo       XXXXOOOO##################XXXXXXXX           ",
"XXXXoooo       XXXXOOOO##################XXXXXXXX           ",
"XXXXoooo       XXXXOOOO##################XXXXXXXX           ",
"XXXXoooo       XXXXOOOO##################XXXXXXXX           ",
"XXXX           XXXXoooo###ooooOOOOooo####XXXX               ",
"XXXX           XXXXooo####ooooOOOOooo####XXXX               ",
"XXXX           XXXXooo####ooooOOOOooo####XXXX               ",
"               XXXXooo####XXXXXXXXXXXXXXX####XXXX           ",
"               XXXXooo####XXXXXXXXXXXXXXX####XXXX           ",
"               XXXXooo####XXXXXXXXXXXXXXX####XXXX           ",
"               XXXXooo####XXXXXXXXXXXXXXX####XXXX           ",
"               XXXXOOOXXXXXXXXXXXX       XXXX####XXX        ",
"               XXXXOOOXXXXXXXXXXXX       XXXX####XXX        ",
"               XXXXOOOXXXXXXXXXXXX       XXXX####XXX        ",
"               XXXXOOOXXXXXXXXXXXX       XXXX####XXX        ",
"               XXXXOOOXXXXXXXX           XXXXXXXX           ",
"               XXXXOOOXXXXXXXX           XXXXXXXX           ",
"               XXXXOOOXXXXXXXX           XXXXXXXX           ",
"               XXXXOOOXXXXXXXX           XXXXXXXX           ",
"               XXXXOOOXXXXXXXXXXXX                          ",
"               XXXXOOOXXXXXXXXXXXX                          ",
"               XXXXOOOXXXXXXXXXXXX                          ",
"                   XXX++++XXXX++++XXX                       ",
"                   XXX++++XXXX++++XXX                       ",
"                   XXX++++XXXX++++XXX                       ",
"                   XXX++++XXXX++++XXX                       ",
"                                                            ",
"                                                            "
};
