/* XPM */
static char *faf5fcfd447e4533d41b94a09ddbfc22ja8F7A5G78il4ag6[] = {
/* columns rows colors chars-per-pixel */
"60 60 6 1 ",
"  c None",
". c #531E1E",
"X c #B52F1F",
"o c #E5621B",
"O c #C92252",
"+ c #F4B200",
/* pixels */
"                           OOOOO                            ",
"                           OOOOO                            ",
"                           OOOOO                            ",
"                           OOOOO                            ",
"                       .............                        ",
"                       .............                        ",
"                       .............                        ",
"                       .............                        ",
"                       .............                        ",
"                   ....++++OOOOO++++....                    ",
"                   ....++++OOOOO++++....                    ",
"                   ....++++OOOOO++++....                    ",
"                   ....++++OOOOO++++....                    ",
"                   ....+++++++++++++....                    ",
"                   ....+++++++++++++....                    ",
"                   ....+++++++++++++....                    ",
"                   ....+++++++++++++....                    ",
"                   ....ooooOOOOOoooo....                    ",
"                   ....ooooOOOOOoooo....                    ",
"                   ....ooooOOOOOoooo....                    ",
"                   ....ooooOOOOOoooo....                    ",
"                   ........+++++........                    ",
"                   ........+++++........                    ",
"                   ........+++++........                    ",
"                   ........+++++........                    ",
"                   ........+++++........                    ",
"              .....oooo++++OOOOO++++oooo.....               ",
"              .....oooo++++OOOOO++++oooo.....               ",
"              .....oooo++++OOOOO++++oooo.....               ",
"              .....oooo++++OOOOO++++oooo.....               ",
"              .....++++XXXX+++++XXXX++++.....               ",
"              .....++++XXXX+++++XXXX++++.....               ",
"              .....++++XXXX+++++XXXX++++.....               ",
"              .....++++XXXX+++++XXXX++++.....               ",
"          ....+++++++++....OOOOO....+++++++++....           ",
"          ....+++++++++....OOOOO....+++++++++....           ",
"          ....+++++++++....OOOOO....+++++++++....           ",
"          ....+++++++++....OOOOO....+++++++++....           ",
"          ....+++++++++....OOOOO....+++++++++....           ",
"          ....+++++++++....+++++....+++++++++....           ",
"          ....+++++++++....+++++....+++++++++....           ",
"          ....+++++++++....+++++....+++++++++....           ",
"          ....+++++++++....+++++....+++++++++....           ",
"          ....oooooXXXX....ooooo....XXXXooooo....           ",
"          ....oooooXXXX....ooooo....XXXXooooo....           ",
"          ....oooooXXXX....ooooo....XXXXooooo....           ",
"          ....oooooXXXX....ooooo....XXXXooooo....           ",
"              .....ooooXXXX.....XXXXoooo.....               ",
"              .....ooooXXXX.....XXXXoooo.....               ",
"              .....ooooXXXX.....XXXXoooo.....               ",
"              .....ooooXXXX.....XXXXoooo.....               ",
"              .....oooo....     ....oooo.....               ",
"              .....oooo....     ....oooo.....               ",
"              .....oooo....     ....oooo.....               ",
"              .....oooo....     ....oooo.....               ",
"              .....oooo....     ....oooo.....               ",
"          ....+++++oooo....     ....oooo+++++....           ",
"          ....+++++oooo....     ....oooo+++++....           ",
"          ....+++++oooo....     ....oooo+++++....           ",
"          ....+++++oooo....     ....oooo+++++....           "
};
