/* XPM */
static char *_70d9595025b4f838ddd447a914e6468BkY8Ag4lpPKViSh0[] = {
/* columns rows colors chars-per-pixel */
"60 60 5 1 ",
"  c None",
". c #4A3B1F",
"X c #E5AB3D",
"o c #FDC760",
"O c white",
/* pixels */
"                    ...................                     ",
"                    ...................                     ",
"                    ...................                     ",
"                    ...................                     ",
"                ....OOOOoooooooooooXXXX....                 ",
"                ....OOOOoooooooooooXXXX....                 ",
"                ....OOOOoooooooooooXXXX....                 ",
"                ....OOOOoooooooooooXXXX....                 ",
"             ...OOOOOOOOOOOOoooXXXXOOOOOOOO...              ",
"             ...OOOOOOOOOOOOoooXXXXOOOOOOOO...              ",
"             ...OOOOOOOOOOOOoooXXXXOOOOOOOO...              ",
"             ...OOOOOOOOOOOOOOOOOOOOOOOOOOO...              ",
"             ...OOOOOOOOOOOOOOOOOOOOOOOOOOO...              ",
"             ...OOOOOOOOOOOOOOOOOOOOOOOOOOO...              ",
"             ...OOOOOOOOOOOOOOOOOOOOOOOOOOO...              ",
"         ....OOOOOOOOOOOOOOOOOOOOOOOOOOOOOOOOO....          ",
"         ....OOOOOOOOOOOOOOOOOOOOOOOOOOOOOOOOO....          ",
"         ....OOOOOOOOOOOOOOOOOOOOOOOOOOOOOOOOO....          ",
"         ....OOOOOOOOOOOOOOOOOOOOOOOOOOOOOOOOO....          ",
"         ....oooooooOOOOOOOOOOOOOOOOOOOOOOOOOO....          ",
"         ....oooooooOOOOOOOOOOOOOOOOOOOOOOOOOO....          ",
"         ....oooooooOOOOOOOOOOOOOOOOOOOOOOOOOO....          ",
"         ....oooooooOOOOOOOOOOOOOOOOOOOOOOOXXX....          ",
"         ....XXXXXXXooooOOOOOOOOOOOOOOOOOOOXXX....          ",
"         ....XXXXXXXooooOOOOOOOOOOOOOOOOOOOXXX....          ",
"         ....XXXXXXXooooOOOOOOOOOOOOOOOOOOOXXX....          ",
"     ....XXXXXXXooooooooOOOOOOOOOOOOOOOooooXXXXXXX....      ",
"     ....XXXXXXXooooooooOOOOOOOOOOOOOOOooooXXXXXXX....      ",
"     ....XXXXXXXooooooooOOOOOOOOOOOOOOOooooXXXXXXX....      ",
"     ....XXXXXXXooooooooOOOOOOOOOOOOOOOooooXXXXXXX....      ",
"     ....XXXXoooOOOOOOOOOOOOOOOOOOOOOOOoooooooXXXX....      ",
"     ....XXXXoooOOOOOOOOOOOOOOOOOOOOOOOoooooooXXXX....      ",
"     ....XXXXoooOOOOOOOOOOOOOOOOOOOOOOOoooooooXXXX....      ",
"     ....XXXXoooOOOOOOOOOOOOOOOOOOOOOOOoooooooXXXX....      ",
"     ....XXXXoooOOOOOOOOOOOOXXXOOOOOOOOOOOOOOOOOOO....      ",
"     ....XXXXoooOOOOOOOOOOOOXXXOOOOOOOOOOOOOOOOOOO....      ",
"     ....XXXXoooOOOOOOOOOOOOXXXOOOOOOOOOOOOOOOOOOO....      ",
"     ....XXXXoooOOOOOOOOXXXXoooOOOOOOOOOOOOOOOOOOO....      ",
"     ....OOOOOOOOOOOOOOOXXXXoooOOOOOOOOOOOOOOOOOOO....      ",
"     ....OOOOOOOOOOOOOOOXXXXoooOOOOOOOOOOOOOOOOOOO....      ",
"     ....OOOOOOOOOOOOOOOXXXXoooOOOOOOOOOOOOOOOOOOO....      ",
"     ....OOOOOOOOOOOOOOOOOOOOOOOOOOOOOOOOOOOOOOOOO....      ",
"     ....OOOOOOOOOOOOOOOOOOOOOOOOOOOOOOOOOOOOOOOOO....      ",
"     ....OOOOOOOOOOOOOOOOOOOOOOOOOOOOOOOOOOOOOOOOO....      ",
"     ....OOOOOOOOOOOOOOOOOOOOOOOOOOOOOOOOOOOOOOOOO....      ",
"     ....OOOOOOOOOOOOOOOOOOOOOOOOOOooooooooOOOOOOO....      ",
"     ....OOOOOOOOOOOOOOOOOOOOOOOOOOooooooooOOOOOOO....      ",
"     ....OOOOOOOOOOOOOOOOOOOOOOOOOOooooooooOOOOOOO....      ",
"     ....OOOOOOOOOOOOOOOOOOOOOOOOOOooooooooOOOOOOO....      ",
"         ....XXXXXXXOOOOOOOOOOOooooXXXXXXXXOOO....          ",
"         ....XXXXXXXOOOOOOOOOOOooooXXXXXXXXOOO....          ",
"         ....XXXXXXXOOOOOOOOOOOooooXXXXXXXXOOO....          ",
"         ..  .......OOOOOOOOoooooooXXXX.......              ",
"             .......OOOOOOOOoooooooXXXX.......              ",
"             .......OOOOOOOOoooooooXXXX.......              ",
"             .......OOOOOOOOoooooooXXXX.......              ",
"                    ...................                     ",
"                    ...................                     ",
"                    ...................                     ",
"                    ...................                     "
};
