/* XPM */
static char *_2aa8e3f13494aece433b68402d66927oRmeExkH7ESfOiMF[] = {
/* columns rows colors chars-per-pixel */
"60 60 18 1 ",
"  c #8C9A45",
". c #8D9B45",
"X c #8D9B46",
"o c #8D9C46",
"O c #909E47",
"+ c #909F47",
"@ c #919F47",
"# c #919F48",
"$ c #92A148",
"% c #93A148",
"& c #95A44A",
"* c #96A44A",
"= c #96A54A",
"- c #97A64B",
"; c #98A74B",
": c #99A84B",
"> c #99A84C",
", c #9AA84C",
/* pixels */
"                                                            ",
"                                                            ",
"              .%.               O+                          ",
"             .%>%               #%+                         ",
"            ..>-+                #;+                        ",
"            .%:O                 %;,+                       ",
"              %                   #;+           +%O         ",
"                                   %            +;          ",
"    ...                                         +,          ",
"   #:.                                          +*O         ",
"    .>                                                      ",
"     >:%.=.               %=%                               ",
"     %;==>               %-=O                       ++      ",
"      %:-=               >-%                       +%%      ",
"       %=               .>.                        ;>%      ",
"                       o..                         *;       ",
"                                                   #        ",
"                                                            ",
"                                                            ",
"                                                            ",
"                                                            ",
"                                                            ",
"                               ++                  O#       ",
"     %.                        %++                 %%       ",
"     >+                         #;                  %;  ... ",
"     >+                  -O     =;;                 %>; %%. ",
"    .>+                O--%      =>.                 %;;;%  ",
"    .%.       .%       O>&        =.        %         =;=#  ",
"         O  o..;O      O&                  +>+         -.   ",
"        %;   %>>O                          %=               ",
"         o>. %>O                           .-#              ",
"          >>O O                             #               ",
"         .%>%                %%                             ",
"           %%            O O=>;#                #           ",
"                         >O=;;                 %=           ",
"                        #=>-=                 =>=           ",
"                         +;%#                 =%#           ",
"                          ++                  ##            ",
"                                                            ",
"                                                            ",
"                                                            ",
"                                                            ",
"   +%.                                                      ",
"   +%%.                                                     ",
"    .>%  .                                      .           ",
"    o>=%+;                                      .>          ",
"     +--->                                       %-         ",
"      +=;%     %%O                                >%##%     ",
"       +#     %;;.                                %>;=;     ",
"             O>>+.                                .%;>;     ",
"             %>O          ..  --%                   %;      ",
"             ...          OOO=>=#                    #      ",
"      ++                  =-==&O                            ",
"      &%       %OO        O>>%o                             ",
"      &%  ..  .>>%      . .+&                               ",
"      &%...=%.>>%       ....                                ",
"      O    &->-%                                            ",
"           O&-O                                             ",
"            +-                                              ",
"                                                            "
};
