/* XPM */
static char *_85115ac0fd14d6494d2fcdb6cc2391cjkkM0SjOhaav9pRO[] = {
/* columns rows colors chars-per-pixel */
"54 60 5 1 ",
"  c None",
". c #4A3B1F",
"X c #E5AB3D",
"o c #FDC760",
"O c white",
/* pixels */
"                    ...................               ",
"                    ...................               ",
"                    ...................               ",
"                    ...................               ",
"                ....OOOOoooooooooooXXXX....           ",
"                ....OOOOoooooooooooXXXX....           ",
"                ....OOOOoooooooooooXXXX....           ",
"                ....OOOOoooooooooooXXXX....           ",
"             ...OOOOOOOOOOOOoooXXXXOOOOOOOO...        ",
"             ...OOOOOOOOOOOOoooXXXXOOOOOOOO...        ",
"             ...OOOOOOOOOOOOoooXXXXOOOOOOOO...        ",
"             ...OOOOOOOOOOOOOOOOOOOOOOOOOOO...        ",
"             ...OOOOOOOOOOOOOOOOOOOOOOOOOOO...        ",
"             ...OOOOOOOOOOOOOOOOOOOOOOOOOOO...        ",
"             ...OOOOOOOOOOOOOOOOOOOOOOOOOOO...        ",
"         ....OOOOOOOOOOOOOOOOOOOOOOOOOOOOOOOOO....    ",
"         ....OOOOOOOOOOOOOOOOOOOOOOOOOOOOOOOOO....    ",
"         ....OOOOOOOOOOOOOOOOOOOOOOOOOOOOOOOOO....    ",
"         ....OOOOOOOOOOOOOOOOOOOOOOOOOOOOOOOOO....    ",
"         ....ooo....OOOOOOOOOOOOOOOOOOOOOOOOOO....    ",
"         ....ooo....OOOOOOOOOOOOOOOOOOOOOOOOOO....    ",
"         ....ooo....OOOOOOOOOOOOOOOOOOOOOOOOOO....    ",
"         ....ooo....OOOOOOOOOOOOOOOOOOOOOOOXXX....    ",
"         .......XXXXooooOOOOOOOOOOOOOOOOOOOXXX....    ",
"         .......XXXXooooOOOOOOOOOOOOOOOOOOOXXX....    ",
"         .......XXXXooooOOOOOOOOOOOOOOOOOOOXXX....    ",
"     ....XXXXXXXooooooooOOOOOOOOOOOOOOOooooXXXXXXX....",
"     ....XXXXXXXooooooooOOOOOOOOOOOOOOOooooXXXXXXX....",
"     ....XXXXXXXooooooooOOOOOOOOOOOOOOOooooXXXXXXX....",
"     ....XXXXXXXooooooooOOOOOOOOOOOOOOOooooXXXXXXX....",
"     ....XXXXoooOOOOOOOOOOOOOOOOOOOOOOOoooooooXXXX....",
"     ....XXXXoooOOOOOOOOOOOOOOOOOOOOOOOoooooooXXXX....",
"     ....XXXXoooOOOOOOOOOOOOOOOOOOOOOOOoooooooXXXX....",
"     ....XXXXoooOOOOOOOOOOOOOOOOOOOOOOOoooooooXXXX....",
"     ....XXXXoooOOOOOOOOOOOOXXXOOOOOOOOOOOOOOOOOOO....",
"     ....XXXXoooOOOOOOOOOOOOXXXOOOOOOOOOOOOOOOOOOO....",
"     ....XXXXoooOOOOOOOOOOOOXXXOOOOOOOOOOOOOOOOOOO....",
"     ....XXXXoooOOOOOOOOXXXXoooOOOOOOOOOOOOOOOOOOO....",
"     ....OOOOOOOOOOOOOOOXXXXoooOOOOOOOOOOOOOOOOOOO....",
"     ....OOOOOOOOOOOOOOOXXXXoooOOOOOOOOOOOOOOOOOOO....",
"     ....OOOOOOOOOOOOOOOXXXXoooOOOOOOOOOOOOOOOOOOO....",
"     ....OOOOOOOOOOOOOOOOOOOOOOOOOOOOOOOOOOOOOOOOO....",
"     ....OOOOOOOOOOOOOOOOOOOOOOOOOOOOOOOOOOOOOOOOO....",
"     ....OOOOOOOOOOOOOOOOOOOOOOOOOOOOOOOOOOOOOOOOO....",
"     ....OOOOOOOOOOOOOOOOOOOOOOOOOOOOOOOOOOOOOOOOO....",
"     ....OOOOOOOOOOOOOOOOOOOOOOOOOOooooooooOOOOOOO....",
"     ....OOOOOOOOOOOOOOOOOOOOOOOOOOooooooooOOOOOOO....",
"     ....OOOOOOOOOOOOOOOOOOOOOOOOOOooooooooOOOOOOO....",
"     ....OOOOOOOOOOOOOOOOOOOOOOOOOOooooooooOOOOOOO....",
"         ....XXXXXXXOOOOOOOOOOOooooXXXXXXXXOOO....    ",
"         ....XXXXXXXOOOOOOOOOOOooooXXXXXXXXOOO....    ",
"         ....XXXXXXXOOOOOOOOOOOooooXXXXXXXXOOO....    ",
"         ..  .......OOOOOOOOoooooooXXXX.......        ",
"             .......OOOOOOOOoooooooXXXX.......        ",
"             .......OOOOOOOOoooooooXXXX.......        ",
"             .......OOOOOOOOoooooooXXXX.......        ",
"                    ...................               ",
"                    ...................               ",
"                    ...................               ",
"                    ...................               "
};
