/* XPM */
static char *_386cc4079c64864cc48d8c868a2f73eIfAdw3WfhqjUAUZy[] = {
/* columns rows colors chars-per-pixel */
"60 60 5 1 ",
"  c None",
". c #4A3B1F",
"X c #E5AB3D",
"o c #FDC760",
"O c white",
/* pixels */
"                     .................                      ",
"                     .................                      ",
"                     .................                      ",
"                  ...OOOOoooooooooXXXX...                   ",
"                  ...OOOOoooooooooXXXX...                   ",
"                  ...OOOOoooooooooXXXX...                   ",
"                  ...OOOOoooooooooXXXX...                   ",
"               ...OOOOOOOOOOoooXXXOOOOOOO...                ",
"               ...OOOOOOOOOOoooXXXOOOOOOO...                ",
"               ...OOOOOOOOOOoooXXXOOOOOOO...                ",
"               ...OOOOOOOOOOOOOOOOOOOOOOO...                ",
"               ...OOOOOOOOOOOOOOOOOOOOOOO...                ",
"               ...OOOOOOOOOOOOOOOOOOOOOOO...                ",
"           ....OOOOOOOOOOOOOOOOOOOOOOOOOOOOO....            ",
"           ....OOOOOOOOOOOOOOOOOOOOOOOOOOOOO....            ",
"           ....OOOOOOOOOOOOOOOOOOOOOOOOOOOOO....            ",
"           ....OOOOOOOOOOOOOOOOOOOOOOOOOOOOO....            ",
"           ....ooo...OOOO...OOO...OOOO...OOO....            ",
"           ....ooo...OOOO...OOO...OOOO...OOO....            ",
"           ....ooo...OOOO...OOO...OOOO...OOO....            ",
"           .......ooo....ooo...ooo....ooo.......            ",
"           .......ooo....ooo...ooo....ooo.......            ",
"           .......ooo....ooo...ooo....ooo.......            ",
"                  ...oooo...ooo...oooo...                   ",
"                  ...oooo...ooo...oooo...                   ",
"                  ...oooo...ooo...oooo...                   ",
"                  ...oooo...ooo...oooo...                   ",
"           .......XXX....OOO...OOO....OOO.......            ",
"           .......XXX....OOO...OOO....OOO.......            ",
"           .......XXX....OOO...OOO....OOO.......            ",
"        ...XXXXXXXoooooooOOOOOOOOOOOOOoooXXXXXXX...         ",
"        ...XXXXXXXoooooooOOOOOOOOOOOOOoooXXXXXXX...         ",
"        ...XXXXXXXoooooooOOOOOOOOOOOOOoooXXXXXXX...         ",
"        ...XXXXoooOOOOOOOOOOOOOOOOOOOOooooooXXXX...         ",
"        ...XXXXoooOOOOOOOOOOOOOOOOOOOOooooooXXXX...         ",
"        ...XXXXoooOOOOOOOOOOOOOOOOOOOOooooooXXXX...         ",
"        ...XXXXoooOOOOOOOOOOOOOOOOOOOOooooooXXXX...         ",
"        ...XXXXoooOOOOOOOOOOXXXOOOOOOOOOOOOOOOOO...         ",
"        ...XXXXoooOOOOOOOOOOXXXOOOOOOOOOOOOOOOOO...         ",
"        ...XXXXoooOOOOOOOOOOXXXOOOOOOOOOOOOOOOOO...         ",
"        ...OOOOOOOOOOOOOOXXXoooOOOOOOOOOOOOOOOOO...         ",
"        ...OOOOOOOOOOOOOOXXXoooOOOOOOOOOOOOOOOOO...         ",
"        ...OOOOOOOOOOOOOOXXXoooOOOOOOOOOOOOOOOOO...         ",
"        ...OOOOOOOOOOOOOOOOOOOOOOOOOOOOOOOOOOOOO...         ",
"        ...OOOOOOOOOOOOOOOOOOOOOOOOOOOOOOOOOOOOO...         ",
"        ...OOOOOOOOOOOOOOOOOOOOOOOOOOOOOOOOOOOOO...         ",
"        ...OOOOOOOOOOOOOOOOOOOOOOOOOOOOOOOOOOOOO...         ",
"        ...OOOOOOOOOOOOOOOOOOOOOOOoooooooOOOOOOO...         ",
"        ...OOOOOOOOOOOOOOOOOOOOOOOoooooooOOOOOOO...         ",
"        ...OOOOOOOOOOOOOOOOOOOOOOOoooooooOOOOOOO...         ",
"           ....XXXXXXOOOOOOOOOOoooXXXXXXXOOO....            ",
"           ....XXXXXXOOOOOOOOOOoooXXXXXXXOOO....            ",
"           ....XXXXXXOOOOOOOOOOoooXXXXXXXOOO....            ",
"               ......OOOOOOOooooooXXXX......                ",
"               ......OOOOOOOooooooXXXX......                ",
"               ......OOOOOOOooooooXXXX......                ",
"               ......OOOOOOOooooooXXXX......                ",
"                     .................                      ",
"                     .................                      ",
"                     .................                      "
};
