/* XPM */
static char *_a5b9f08678349bcb2475d50c20191b5iHmGqwDJjjQyAUEa[] = {
/* columns rows colors chars-per-pixel */
"60 60 7 1 ",
"  c None",
". c #4A3B1F",
"X c #E5AB3D",
"o c #FDC760",
"O c #D8B78F",
"+ c #FFD7A8",
"@ c white",
/* pixels */
"                      ...............                       ",
"                      ...............                       ",
"                      ...............                       ",
"                   ...@@@oooooooooXXX...                    ",
"                   ...@@@oooooooooXXX...                    ",
"                   ...@@@oooooooooXXX...                    ",
"                ...@@@@@@@@@oooXXX@@@@@@...                 ",
"                ...@@@@@@@@@oooXXX@@@@@@...                 ",
"                ...@@@@@@@@@oooXXX@@@@@@...                 ",
"                ...@@@@@@@@@@@@@@@@@@@@@...                 ",
"                ...@@@@@@@@@@@@@@@@@@@@@...                 ",
"                ...@@@@@@@@@@@@@@@@@@@@@...                 ",
"             ...@@@@@@@@@@@@@@@@@@@@@@@@@@@...              ",
"             ...@@@@@@@@@@@@@@@@@@@@@@@@@@@...              ",
"             ...@@@@@@@@@@@@@@@@@@@@@@@@@@@...              ",
"             ...ooo...@@@...@@@...@@@...@@@...              ",
"             ...ooo...@@@...@@@...@@@...@@@...              ",
"             ...ooo...@@@...@@@...@@@...@@@...              ",
"             ............ooo...ooo...ooo......              ",
"             ............ooo...ooo...ooo......              ",
"             ............ooo...ooo...ooo......              ",
"                   ...oooooooooooooooooo...                 ",
"                   ...oooooooooooooooooo...                 ",
"                   ...oooooooooooooooooo...                 ",
"                   ...XXXXXXoooooooooooo...                 ",
"                   ...XXXXXXoooooooooooo...                 ",
"                   ...XXXXXXoooooooooooo...                 ",
"                   ...XXX...OOO...+++......                 ",
"                   ...XXX...OOO...+++......                 ",
"                   ...XXX...OOO...+++......                 ",
"             ......XXX...@@@...@@@...@@@......              ",
"             ......XXX...@@@...@@@...@@@......              ",
"             ......XXX...@@@...@@@...@@@......              ",
"          ...XXXXXXoooooo@@@@@@@@@@@@oooXXXXXX...           ",
"          ...XXXXXXoooooo@@@@@@@@@@@@oooXXXXXX...           ",
"          ...XXXXXXoooooo@@@@@@@@@@@@oooXXXXXX...           ",
"          ...XXXooo@@@@@@@@@@@@@@@@@@ooooooXXX...           ",
"          ...XXXooo@@@@@@@@@@@@@@@@@@ooooooXXX...           ",
"          ...XXXooo@@@@@@@@@@@@@@@@@@ooooooXXX...           ",
"          ...XXXooo@@@@@@@@@XXX@@@@@@@@@@@@@@@...           ",
"          ...XXXooo@@@@@@@@@XXX@@@@@@@@@@@@@@@...           ",
"          ...XXXooo@@@@@@@@@XXX@@@@@@@@@@@@@@@...           ",
"          ...@@@@@@@@@@@@XXXooo@@@@@@@@@@@@@@@...           ",
"          ...@@@@@@@@@@@@XXXooo@@@@@@@@@@@@@@@...           ",
"          ...@@@@@@@@@@@@XXXooo@@@@@@@@@@@@@@@...           ",
"          ...@@@@@@@@@@@@@@@@@@@@@@@@@@@@@@@@@...           ",
"          ...@@@@@@@@@@@@@@@@@@@@@@@@@@@@@@@@@...           ",
"          ...@@@@@@@@@@@@@@@@@@@@@@@@@@@@@@@@@...           ",
"          ...@@@@@@@@@@@@@@@@@@@@@oooooo@@@@@@...           ",
"          ...@@@@@@@@@@@@@@@@@@@@@oooooo@@@@@@...           ",
"          ...@@@@@@@@@@@@@@@@@@@@@oooooo@@@@@@...           ",
"             ...XXXXXX@@@@@@@@@oooXXXXXX@@@...              ",
"             ...XXXXXX@@@@@@@@@oooXXXXXX@@@...              ",
"             ...XXXXXX@@@@@@@@@oooXXXXXX@@@...              ",
"                ......@@@@@@ooooooXXX......                 ",
"                ......@@@@@@ooooooXXX......                 ",
"                ......@@@@@@ooooooXXX......                 ",
"                      ...............                       ",
"                      ...............                       ",
"                      ...............                       "
};
