/* XPM */
static char *_cc2577d03064f2f86c9013078d85e45tqfPbZdI2IpBp0Vl[] = {
/* columns rows colors chars-per-pixel */
"60 60 8 1 ",
"  c None",
". c #4A3B1F",
"X c #E5AB3D",
"o c #FDC760",
"O c #2379EA",
"+ c #D8B78F",
"@ c #FFD7A8",
"# c white",
/* pixels */
"                  ..............................            ",
"                  ..............................            ",
"                  ..............................            ",
"               ......OOOOOO...XXXooooooooooooooo...         ",
"               ......OOOOOO...XXXooooooooooooooo...         ",
"               ......OOOOOO...XXXooooooooooooooo...         ",
"               ...OOOOOO...XXXooooooXXXXXXoooooo...         ",
"               ...OOOOOO...XXXooooooXXXXXXoooooo...         ",
"               ...OOOOOO...XXXooooooXXXXXXoooooo...         ",
"                  ...OOO...XXX#########XXXoooooo...         ",
"                  ...OOO...XXX#########XXXoooooo...         ",
"                  ...OOO...XXX#########XXXoooooo...         ",
"               ...OOOOOO...XXX###...###ooooooooo...         ",
"               ...OOOOOO...XXX###...###ooooooooo...         ",
"               ...OOOOOO...XXX###...###ooooooooo...         ",
"               ......OOO...XXX#########ooooooooo...         ",
"               ......OOO...XXX#########ooooooooo...         ",
"               ......OOO...XXX#########ooooooooo...         ",
"               ...OOO...XXXXXXoooooooooooooooooo...         ",
"               ...OOO...XXXXXXoooooooooooooooooo...         ",
"               ...OOO...XXXXXXoooooooooooooooooo...         ",
"                  ......XXXXXXXXXooo...............         ",
"                  ......XXXXXXXXXooo...............         ",
"                  ......XXXXXXXXXooo...............         ",
"                  ......XXXXXXooooooooo...                  ",
"                  ......XXXXXXooooooooo...                  ",
"                  ......XXXXXXooooooooo...                  ",
"                  ...XXX...+++...@@@......                  ",
"                  ...XXX...+++...@@@......                  ",
"                  ...XXX...+++...@@@......                  ",
"            ......XXX...###...###...###......               ",
"            ......XXX...###...###...###......               ",
"            ......XXX...###...###...###......               ",
"         ...XXXXXXoooooo############oooXXXXXX...            ",
"         ...XXXXXXoooooo############oooXXXXXX...            ",
"         ...XXXXXXoooooo############oooXXXXXX...            ",
"         ...XXXooo##################ooooooXXX...            ",
"         ...XXXooo##################ooooooXXX...            ",
"         ...XXXooo##################ooooooXXX...            ",
"         ...XXXooo#########XXX###############...            ",
"         ...XXXooo#########XXX###############...            ",
"         ...XXXooo#########XXX###############...            ",
"         ...############XXXooo###############...            ",
"         ...############XXXooo###############...            ",
"         ...############XXXooo###############...            ",
"         ...#################################...            ",
"         ...#################################...            ",
"         ...#################################...            ",
"         ...#####################oooooo######...            ",
"         ...#####################oooooo######...            ",
"         ...#####################oooooo######...            ",
"            ...XXXXXX#########oooXXXXXX###...               ",
"            ...XXXXXX#########oooXXXXXX###...               ",
"            ...XXXXXX#########oooXXXXXX###...               ",
"               ......######ooooooXXX......                  ",
"               ......######ooooooXXX......                  ",
"               ......######ooooooXXX......                  ",
"                     ...............                        ",
"                     ...............                        ",
"                     ...............                        "
};
