/* XPM */
static char *b72aed774698481c94b0e5b190a6bbf7jppxOtmbe462D1KP[] = {
/* columns rows colors chars-per-pixel */
"60 60 14 1 ",
"  c None",
". c #32222E",
"X c #252A32",
"o c #424556",
"O c #E5233E",
"+ c #E56335",
"@ c #9C0565",
"# c #FFA939",
"$ c #3D2E93",
"% c #6440D8",
"& c #00C19A",
"* c #6DF7B1",
"= c #6C88FF",
"- c #CCFFF5",
/* pixels */
"                         ...oo                              ",
"                         ...oo                              ",
"                       ..o  oo..                 &&&&&&&    ",
"                       ..o  oo..                 &&&&&&&    ",
"     oo..oo          ..oo&&&..oooo            &&&**----*&&  ",
"    ooooo...    @@@@@..@@@@@..oooo&         &&**---**---**&&",
"    ooooo...    @@@@@..@@@@@..oooo&         &&**---**---**&&",
"    ooo..  ...@@OO+++..OO+++OOoooo&       &&**--*&&----*--&&",
"    ooo..  ...@@OO+++..OO+++OOoooo&       &&**--*&&----*--&&",
"    ooo     ..OOOOOOO..OOOOO++++OO@&&    &**--**&--**&&-**..",
"    ooo     ..OOOOOOO..OOOOO++++OO@&&    &**--**&--**&&-**..",
"    ...  OOOOO.....OOOO##+OOOO++++@@@  &&*--**&&*&&&&---&&  ",
"       OO###++OO++O++##++%%%$$OO++O@@..&&-**&&&&&------*..  ",
"       OO###++OO++O++##++%%%$$OO++O@@..&&-**&&&&&------*..  ",
"       $$%%+##OO++O##++%%%==%%$$+++@@..OO*&&**-------**.    ",
"       $$%%+##OO++O##++%%%==%%$$+++@@..OO*&&**-------**.    ",
"     $$%%==%%%+++++$$%%%%=%%==%%+++OO@@++O**----*......     ",
"     $$%%==%%%+++++$$%%%%=%%==%%+++OO@@++O**----*......     ",
"     $$%%%%=%%#####..%%==%====$$OO+++@@+++OO.....           ",
"       ..==%..#####++..%%===%%$$OO+++@@++#OO                ",
"       ..==%..#####++..%%===%%$$OO+++@@++#OO                ",
"       OO...++OO###++++.....$$..OO+++@@++#++..              ",
"       OO...++OO###++++.....$$..OO+++@@++#++..              ",
"       OO++###++#########+OO++..+++++@@ooo++OO              ",
"       OO++###++#########+OO++..+++++@@ooo++OO              ",
"       ..++###############++++..+++OO@@++.ooOO              ",
"         OO+#############+++..OO+++..++##+..OO              ",
"         OO+#############+++..OO+++..++##+..OO              ",
"         @@...OOOOOOO.......OO++++O..oooo+++OO              ",
"         @@...OOOOOOO.......OO++++O..oooo+++OO              ",
"         @@OOO++++++++++++++++++OO...oooo.++..              ",
"         @@OOO++++++++++++++++++OO...oooo.++..              ",
"         ..@OO++++++++++++++++OO..+..++..o....              ",
"         ..@OO++++++++++++++++OO..+..++..o....              ",
"       OO++...OOOO++++++++OO..++##+..##++...                ",
"     OO####+................OO####+..####+OO                ",
"     OO####+................OO####+..####+OO                ",
"     ..##++O+++++++++++++O..OO##++.++++###OO                ",
"     ..##++O+++++++++++++O..OO##++.++++###OO                ",
"       ..OO+######+++#####++......+oo..++#OO                ",
"       ..OO+######+++#####++......+oo..++#OO                ",
"         OO#####################++ooooo..#OO                ",
"         OO#######################+oooooo+..                ",
"         OO#######################+oooooo+..                ",
"         ..########################..ooooo..                ",
"         ..########################..ooooo..                ",
"         ..###++XXXXXXX++##########++..ooX..                ",
"         ..###++XXXXXXX++##########++..ooX..                ",
"           .++XXoooooXXXX+###########..oo...                ",
"           .XXoooooooooXXX###########..XX.                  ",
"           .XXoooooooooXXX###########..XX.                  ",
"         XXXoooooooooooXX.###########....                   ",
"         XXXoooooooooooXX.###########....                   ",
"     XXXXooooooooooooXX..+#########++..                     ",
"     XXXXooooooooooooXX..+#########++..                     ",
"  XXXoooooooooooooX....++#######++...                       ",
"XXooooooooooooXX...    ...........                          ",
"XXooooooooooooXX...    ...........                          ",
"  ..............                                            ",
"  ..............                                            "
};
