/* XPM */
static char *bf96983d6c354c37f54f35fb35090ac0r4aNHzcJhkg6sL92[] = {
/* columns rows colors chars-per-pixel */
"60 60 22 1 ",
"  c None",
". c #3D2D1D",
"X c #4E361E",
"o c #57391D",
"O c #4B3B22",
"+ c #553326",
"@ c #554526",
"# c #714822",
"$ c #804E1E",
"% c #9A5C1F",
"& c #9C5D1F",
"* c #C0752A",
"= c #EE615F",
"- c #FF6666",
"; c #E2872D",
": c #F29130",
"> c #F79431",
", c #F1D965",
"< c #FFE66B",
"1 c #FF4294",
"2 c #FF4D92",
"3 c white",
/* pixels */
"                           ......                           ",
"                           ..<<..                           ",
"                         ...<<<<...                         ",
"                         ..<<<<<<..                         ",
"                         ..<<<<<<..                         ",
"                      ...<<<<<........                      ",
"                      ...<<<<<........                      ",
"                    .....<<...--------..                    ",
"                    ...<<<<...--------..                    ",
"                    ...<<<<...--------..                    ",
"                    ...<<..-------------...                 ",
"                    ...<<..-------------...                 ",
"                    OO.<<..-------------...                 ",
"                 ...<<<<<..-------------...                 ",
"                 ...<<<<<..-------------...                 ",
"                 ...<<<<<..-------------...                 ",
"                 ...<<<<<..-------------...                 ",
"               .....<<<<<.....-------=.......               ",
"               ...<<<<<<<<<...-------...<<...               ",
"               ...<<<<<<<<<...-------...<<...               ",
"               ...<<<<<<<<<<<<........<<<<...               ",
"               ...<<<<<<<<<<<<........<<<<...               ",
"             .....<<<<<<<<<<<<........<<<<.....             ",
"             ..<<<<<<<<<<<<<<<<<<<<<<<<<<<<<<..             ",
"             ..<<<<<<<<<<<<<<<<<<<<<<<<<<<<<<..             ",
"             ..<<<33...<<<<<<<<<<<<<<<33...<<..             ",
"             ..<<<33...<<<<<<<<<<<<<<<33...<<..             ",
"          ...,,<<<.....<<..,<<<<<..<<<.....<<,,...          ",
"          ...<<<<<.....<<..,<<<<<..<<<.....<<<<...          ",
"          ...<<<<<.....<<..,<<<<<..<<<.....<<<<...          ",
"          ...<<11111<<<<<<<......<<<<<<<11111<<...          ",
"          ...<<11111<<<<<<<......<<<<<<<11111<<...          ",
"          ++X<<22222<<<<<<<......<<<<<<<22222<<...          ",
"       ...---..<<<<<<<<<<<<<<<<<<<<<<<<<<<<<<<<<<<...       ",
"       ...---..<<<<<<<<<<<<<<<<<<<<<<<<<<<<<<<<<<<...       ",
"       ...-----...<<<<<<<<<<<<<<<<<<<<<<<<<<<<<<<<...       ",
"       ...-----...<<<<<<<<<<<<<<<<<<<<<<<<<<<<<<<<...       ",
"     .....-----...<<<<<<<<<<<<<<<<<<<,.......<<<<<.....     ",
"     ...-------...<<<<<<<<<<<<<<<<<<<........<<<<<<<,..     ",
"     ...-------...<<<<<<<<<<<<<<<<<<<........<<<<<<<,..     ",
"  ......-------...<<<<<<<<<<<<<<<<<...-------..,<<<<,.....  ",
"  ......-------...<<<<<<<<<<<<<<<<<...-------..,<<<<,.....  ",
"...$$**...---.....<<<<<<<<<<<<<<<.....-------........**$$...",
"..$&&>>o..---..<<<<<<<<<<<<<<<<<<..------------+....X>>&&$..",
"..$&&>>o..---..<<<<<<<<<<<<<<<<<<..------------+....X>>&&$..",
"..$&&>>>>>.....<<<<<<<<<<<<<<<<<<..----------.....>>>>>&&$..",
"..$&&>>>>>.....<<<<<<<<<<<<<<<<<<..----------.....>>>>>&&$..",
"..$&&>>>>>:::::@@@@@@@@@@@@@@@@@@..++++++++++:::::>>>>>&&$..",
"..$&&>>>>>>>>>>..............................>>>>>>>>>>&&$..",
"..$&&>>>>>>>>>>..............................>>>>>>>>>>&&$..",
"..$&&&&:>>>>>>>>>>>>>>>>>>>>>>>>>>>>>>>>>>>>>>>>>>>>:&&&&$..",
"..$&&&&:>>>>>>>>>>>>>>>>>>>>>>>>>>>>>>>>>>>>>>>>>>>>:&&&&$..",
"..#%%&&;:::::::>>>>>>>>>>>>>>>>>>>>>>>>>>>>>>::::::::&&%%$..",
"  ...&&&&&&&&&&>>>>>>>>>>>>>>>>>>>>>>>>>>>>>>&&&&&&&&&&...  ",
"  ...&&&&&&&&&&>>>>>>>>>>>>>>>>>>>>>>>>>>>>>>&&&&&&&&&&...  ",
"     .....&&&&&&&&&&&&&&&&&&&&&&&&&&&&&&&&&&&&&&&&.....     ",
"     .....&&&&&&&&&&&&&&&&&&&&&&&&&&&&&&&&&&&&&&&&.....     ",
"     .....$$$$$$$$$$$$$$$$$$$$$$$$$$$$$$$$$$$$$$$$.....     ",
"          ........................................          ",
"          ........................................          "
};
