/* XPM */
static char *ae8ee5acbd3347aac81757a544519928n8Ljg5TammsFmIrQ[] = {
/* columns rows colors chars-per-pixel */
"60 60 172 2 ",
"   c None",
".  c #3A2E1B",
"X  c #3C2E1B",
"o  c #3B2F1C",
"O  c #3C2F1C",
"+  c #35301E",
"@  c #3E301B",
"#  c #3B301D",
"$  c #3C301C",
"%  c #1C2F28",
"&  c #1C3028",
"*  c #1C3029",
"=  c #1D3029",
"-  c #1C3129",
";  c #1C3229",
":  c #1C3329",
">  c #1C302A",
",  c #1C312A",
"<  c #1C332A",
"1  c #1D3629",
"2  c #1C342A",
"3  c #1C352A",
"4  c #1C362A",
"5  c #1D372A",
"6  c #1D372B",
"7  c #1D382B",
"8  c #1D392B",
"9  c #1D3A2B",
"0  c #1D3B2B",
"q  c #1D3C2A",
"w  c #1E3D2A",
"e  c #1D3C2C",
"r  c #1D3D2C",
"t  c #1D3F2C",
"y  c #253025",
"u  c #263326",
"i  c #293525",
"p  c #412F1A",
"a  c #473217",
"s  c #4D3315",
"d  c #4E3415",
"f  c #423119",
"g  c #433119",
"h  c #40301A",
"j  c #42301A",
"k  c #453218",
"l  c #48361C",
"z  c #49361C",
"x  c #523513",
"c  c #543613",
"v  c #653A0C",
"b  c #653A0D",
"n  c #663A0C",
"m  c #683D0E",
"M  c #693D0E",
"N  c #6C3F0F",
"B  c #1E402A",
"V  c #1E422A",
"C  c #1E422B",
"Z  c #1F462B",
"A  c #1D402C",
"S  c #1D412D",
"D  c #1E412C",
"F  c #1D422D",
"G  c #1E422C",
"H  c #1E432D",
"J  c #1E442D",
"K  c #1E452D",
"L  c #1D462D",
"P  c #1E452E",
"I  c #1E462E",
"U  c #1E472E",
"Y  c #1E482E",
"T  c #1E492E",
"R  c #1E4B2F",
"E  c #1F4C2E",
"W  c #1E4C2F",
"Q  c #1E4D2F",
"!  c #1F4E2E",
"~  c #1E4E2F",
"^  c #1F512E",
"/  c #1F502F",
"(  c #1E4E30",
")  c #1E4F30",
"_  c #1F4F30",
"`  c #1F5030",
"'  c #1F5130",
"]  c #1F5230",
"[  c #1F5330",
"{  c #1F5331",
"}  c #1E5431",
"|  c #1F5431",
" . c #1E5531",
".. c #1F5531",
"X. c #1F5631",
"o. c #1F5731",
"O. c #1F5831",
"+. c #1F5A30",
"@. c #204E2B",
"#. c #23502E",
"$. c #20552C",
"%. c #20562F",
"&. c #215A2C",
"*. c #215B2C",
"=. c #205B2F",
"-. c #215C2C",
";. c #215E2D",
":. c #205531",
">. c #205632",
",. c #205930",
"<. c #205831",
"1. c #205931",
"2. c #205A30",
"3. c #205B30",
"4. c #205C30",
"5. c #205D30",
"6. c #205E30",
"7. c #215E30",
"8. c #215F30",
"9. c #22602D",
"0. c #21602F",
"q. c #21632F",
"w. c #22632F",
"e. c #22642F",
"r. c #22652F",
"t. c #22662F",
"y. c #22672F",
"u. c #22682F",
"i. c #22692F",
"p. c #23692F",
"a. c #226A2F",
"s. c #236A2F",
"d. c #236B2F",
"f. c #246B2E",
"g. c #236C2E",
"h. c #236D2E",
"j. c #236C2F",
"k. c #236D2F",
"l. c #236E2E",
"z. c #246D2E",
"x. c #246E2E",
"c. c #246F2E",
"v. c #23702D",
"b. c #23712D",
"n. c #23712F",
"m. c #24712D",
"M. c #24702E",
"N. c #24712E",
"B. c #25712E",
"V. c #24712F",
"C. c #25712F",
"Z. c #24722E",
"A. c #216030",
"S. c #216130",
"D. c #216230",
"F. c #216330",
"G. c #6E4110",
"H. c #60401A",
"J. c #714311",
"K. c #744614",
"L. c #7A4A15",
"P. c #7C4B16",
"I. c #7F4D17",
"U. c #714A1C",
"Y. c #804F18",
"T. c #814F18",
"R. c #835019",
"E. c #845119",
"W. c #87541B",
"Q. c #83541E",
"!. c #905A1F",
"~. c #915B1F",
/* pixels */
"                                                          M.Z.                                                          ",
"                                                      Z.M.Z.M.F.                                                        ",
"                                                    s.M.M.M.F.M.Z.                                                      ",
"                                                Z.s.M.M.Z.M.d.M.M.Z.M.Z.V.                                              ",
"                                              M.M.Z.M.Z.M.Z.M.Z.M.M.M.M.M.M.                                            ",
"                                            M.M.Z.M.Z.M.Z.M.Z.M.l.l.M.Z.d.M.                                            ",
"                                          M.Z.n.M.Z.M.Z.M.Z.M.Z.Z.M.M.t.d.M.M.                                          ",
"                                          M.M.;.M.M.Z.M.Z.M.Z.M.M.M.M.F.M.M.M.V                                         ",
"                                      M.M.Z.M.Z.M.Z.M.Z.M.Z.M.Z.M.t.M.l.M.M.M.M.C =                                     ",
"                                    Z.Z.M.M.Z.M.Z.M.Z.M.Z.M.Z.M.8.M.o.z.M.M.Z.M.n.M.M.                                  ",
"                                Z.M.Z.M.Z.M.M.Z.M.Z.M.M.F.M.M.Z.F.F.o.k.Z.M.Z.F.M.M.M.                                  ",
"                                M.O.M.Z.M.Z.Z.M.Z.M.Z.M.M.o.Z.M.M.M.M.Z.M.Z.M.l.d.M.o.M.M.                              ",
"                              M.S.o.F.M.M.Z.M.Z.M.Z.M.Z.M.M.Z.M.Z.M.Z.M.M.M.M.M.d.0.M.M.M.n.                            ",
"                            M.M.M.l.M.Z.Z.M.Z.M.Z.M.Z.M.M.Z.M.Z.M.Z.M.Z.M.M.8.O.t.n.M.M.M.M.                            ",
"                            n.M.M.M.Z.M.M.Z.M.M.M.Z.M.M.d.8.Z.M.Z.M.M.n.Z.k.t.;.d.M.M.M.M.M.                            ",
"                            % 8.l.Z.M.Z.Z.M.Z.M.S.C ^ 8.d.Z.M.Z.M.M.z.8.M.M.d.=.+.Z.M.Z.M.M.o.                          ",
"                          t 3.M.M.Z.M.Z.M.Z.3.O.8 S z.M.M.Z.M.Z.M.Z.M.Z.8.n.M.0.S.l.n.;.l.8.o.                          ",
"                        J t.l.M.M.M.Z.M.Z.M.M.k.F.p.M.M.M.M.Z.M.Z.M.Z.M.M.M.M.M.S.t.O.8.S.3.{                           ",
"                      o.l.n.n.M.M.Z.M.Z.M.Z.M.M.M.M.M.M.M.Z.M.Z.M.Z.M.M.M.Z.M.Z.z.o.S.3.o.{ >.                          ",
"                    o.o.o.M.d.M.Z.M.Z.M.Z.M.M.l.t.t.t.M.Z.M.Z.M.Z.M.M.M.M.M.Z.M.s.{ 8.o.{ o.o.                          ",
"                  o.{ o.o.d.d.M.M.Z.M.Z.M.Z.M.M.o.o.o.M.M.n.M.M.M.M.M.M.M.n.M.d.o.o.o.{ o.{ o.{                         ",
"                    8.o.M.M.0.M.Z.M.Z.M.Z.M.Z.M.z.M.3.S.c.s.s.M.M.F.d.l.M.d.t.o.3.z.k.o.M.S.8.o.                        ",
"                    l.l.M.M.M.M.M.Z.M.Z.M.Z.M.Z.M.d.o.=.>.o.o.O.3.{ o.O.;.o.o.{ 3.V.l.3.S.n.z.0.>.                      ",
"                  o.l.M.M.l.l.M.Z.M.Z.M.Z.M.Z.M.d.o.o.{ o.{ o.o.) { ) { o.{ { o.{ o.M.M.>.d.M.l.o.o.                    ",
"                      d.S.O.3.S.Z.M.M.M.z.t.S.0.o.o.{ o.{ { o.{ Y / Y o.o.o.o.{ o.o.M.M.d.M.M.F.o.                      ",
"                    M.Z.M.o.o.M.M.M.M.M.o.o.o.>.o.{ o.o.o.o.o.l.Z.M.M.o.o.{ o.o.o.M.M.z.n.M.M.S.o.o.                    ",
"                  Z.M.M.M.n.l.M.Z.M.z.3.8.o.{ S { ~ J >.t.M.z.M.M.Z.M.Z.0.8.8.z.S.S.=.o.t.M.0.S.z.;.                    ",
"                Z.M.M.M.M.M.M.l.d.Z.t.d.3.8.{ { 2 Y ;.z.n.M.M.M.Z.M.Z.M.M.t.f.M.M.z.o.o.o.o.{ o.z.=.                    ",
"                M.M.M.n.t.d.d.{ J =.^ 8.S.o.o.{ o.= 8 l.l.M.M.Z.M.Z.M.Z.M.t.S.s.l.o.{ o.o.o.o.) =                       ",
"                o.s.M.s.o.>.S o.) ; J O.o.o.{ o.o.9 S.;.z.M.Z.M.M.M.Z.M.8.o.O.o.o.o.o.{ O.^ o.=.~                       ",
"                o.o.d.{ o.{ 9 V ;.M.M.M.M.M.;.>.{ o.o.t.o.d.M.Z.M.M.n.n.o.o.8 ) { o.{ 3.M.M.n.n.o.o.                    ",
"                  Y { o.V t.0.M.n.M.Z.M.M.M.n.d.o.{ { o.{ o.d.M.M.M.M.s.o.Y 4 = Y { o.d.M.M.M.n.t.d.                    ",
"                  =.o.o.l.M.M.M.M.Z.M.Z.M.Z.M.M.=.S.M.M.M.O.o.{ z.z.o.{ { = ; % P o.S.M.M.M.Z.M.M.M.M.                  ",
"                  0.o.l.z.M.M.Z.Z.M.Z.M.Z.M.n.t.z.M.M.M.M.M.o.o.o.o.{ o.S % % 3 ) o.F.M.M.Z.M.Z.M.d.z.                  ",
"                  = M.M.Z.M.Z.M.M.Z.M.Z.l.d.o.0.M.M.Z.M.z.o.o.o.t o.o.{ ; t 2 ~ P M.M.M.M.M.Z.M.M.S.                    ",
"                  = M.Z.M.Z.M.Z.Z.M.Z.Z.M.M.z.o.F.M.l.O.8.8.s.l.8.P J 2 t 4 J V 8 F.M.M.M.s.8.S.S.d.M.                  ",
"                    9 $.Z.M.M.3.t.M.M.C M.V.3.o.O.3.o.o.{ 3.M.M.>.o.) { 2 J Y 9 S 8 t.M.k.o.3.o.3.o.                    ",
"                      o.d.n.3.o.>.0.@.= / 3.c.F.O.o.{ o.>.{ ;.>.o.o.o.3.8.J / = = Y t F.O.O.{ 3.>.~                     ",
"                      o.{ =.o.{ Y = t % Y { 8.s.o.o.{ d.l.o.{ { S.t.o.0.8.F.t = = = 8 { s.s.o.l.s.w                     ",
"                          o.>.) S 2 t 9 { o.o.>.o.{ o.{ o.{ o.d.3.8.l.z.M.S.M.2 =   { o.3.l.o.8.= =                     ",
"                          o.{ o.( t S { J (  . .o.{ o.{ o.o.~ o.o.{ o.M.M.M.M.f.        ) S S 9                         ",
"                            o.  { o.>.> % % >  .{ o.{ o.o.= J ) { o.o.{ M.M.M.                                          ",
"                                        = = ; 8 P o.o.P 6 % 8 ; i @.{ o.t.l.                                            ",
"                                            % % % < 3 =     ; = O u o.o.o.O.                                            ",
"                                                % > + o X     y O o = o.                                                ",
"                                                    o o o     o O O                                                     ",
"                                                    # h o o @ O f                                                       ",
"                                                      d k o H.x s                                                       ",
"                                                      Q.c ~.$ o                                                         ",
"                                                        R.~.I.f                                                         ",
"                                                        L.~.I.f                                                         ",
"                                                        I.~.I.f                                                         ",
"                                                        U.~.Y.f                                                         ",
"                                                        X ~.~.l                                                         ",
"                                                        o ~.~.l                                                         ",
"                                                        o ~.~.N v                                                       ",
"                                                      p f P.W.M v                                                       ",
"                                                      l K.v M v k                                                       ",
"                                                      E.T.~.J.T.v v                                                     ",
"                                                        G.G.v v v                                                       "
};
